<svg xmlns="http://www.w3.org/2000/svg" width="24" height="24" viewBox="0 0 24 24" fill="none" stroke="white" stroke-width="2" stroke-linecap="round" stroke-linejoin="round">
  <path d="M19.439 7.85c0-1.428-1.21-2.585-2.704-2.585-1.494 0-2.704 1.157-2.704 2.585V8H11V6.585C11 5.157 9.79 4 8.296 4c-1.494 0-2.704 1.157-2.704 2.585V8H4v10h1.592c0 1.428 1.21 2.585 2.704 2.585 1.494 0 2.704-1.157 2.704-2.585V18h4.296v-1.585c0-1.428 1.21-2.585 2.704-2.585 1.494 0 2.704 1.157 2.704 2.585V18H22V8h-2.561z"/>
</svg>
